<svg width="22" height="13" viewBox="0 0 22 13" fill="none" xmlns="http://www.w3.org/2000/svg">
<rect width="22" height="13" transform="matrix(1 0 0 -1 0 13)" fill="#FAFAFA"/>
<path fill-rule="evenodd" clip-rule="evenodd" d="M22 1.55432V4.38041H17.2237L22 1.55432Z" fill="#012169"/>
<path fill-rule="evenodd" clip-rule="evenodd" d="M16.2105 4.38044L22 0.989131L22 0L14.4737 4.38044H16.2105Z" fill="#C8102E"/>
<path fill-rule="evenodd" clip-rule="evenodd" d="M13.1711 0H19.3948L13.1711 3.67391V0Z" fill="#012169"/>
<path fill-rule="evenodd" clip-rule="evenodd" d="M8.82898 0H2.75003L8.82898 3.67391L8.82898 0Z" fill="#012169"/>
<path fill-rule="evenodd" clip-rule="evenodd" d="M8.82898 4.38044L1.65003 0L3.21716e-05 0L7.32372 4.38044H8.82898Z" fill="#C8102E"/>
<path fill-rule="evenodd" clip-rule="evenodd" d="M5.14239e-05 1.55432V4.38041H4.77637L5.14239e-05 1.55432Z" fill="#012169"/>
<rect width="22" height="2.54348" transform="matrix(1 0 0 -1 0 7.77173)" fill="#C8102E"/>
<rect width="2.60526" height="13" transform="matrix(1 0 0 -1 9.69739 13)" fill="#C8102E"/>
<path fill-rule="evenodd" clip-rule="evenodd" d="M21.9999 11.4457V8.61959H17.2236L21.9999 11.4457Z" fill="#012169"/>
<path fill-rule="evenodd" clip-rule="evenodd" d="M13.171 8.61956L20.35 13L22 13L14.6763 8.61956H13.171Z" fill="#C8102E"/>
<path fill-rule="evenodd" clip-rule="evenodd" d="M13.171 13H19.25L13.171 9.32609L13.171 13Z" fill="#012169"/>
<path fill-rule="evenodd" clip-rule="evenodd" d="M8.82891 13H2.60522L8.82891 9.32609V13Z" fill="#012169"/>
<path fill-rule="evenodd" clip-rule="evenodd" d="M5.78947 8.61956L0 12.0109L0 13L7.52632 8.61956H5.78947Z" fill="#C8102E"/>
<path fill-rule="evenodd" clip-rule="evenodd" d="M0 11.4457V8.61959H4.77632L0 11.4457Z" fill="#012169"/>
</svg>
