<svg width="30" height="23" viewBox="0 0 30 23" fill="none" xmlns="http://www.w3.org/2000/svg">
<path fill-rule="evenodd" clip-rule="evenodd" d="M29.8455 0.759449C29.9434 0.677749 30 0.557129 30 0.429992C30 0.192514 29.8065 0 29.5678 0H0.670974C0.300405 0 0 0.298855 0 0.667512C0 0.865955 0.0887507 1.05411 0.242174 1.18093L14.3293 12.8253C14.6363 13.0791 15.0818 13.078 15.3876 12.8229L29.8455 0.759449ZM1.35336 4.59137C0.81535 4.14665 0 4.52729 0 5.22317V22.1786C0 22.6322 0.369673 23 0.825688 23H29.1743C29.6303 23 30 22.6322 30 22.1786V4.89315C30 4.19549 29.181 3.81545 28.6437 4.26377L15.4814 15.2462L15.3934 15.3196C15.0876 15.5748 14.6421 15.5758 14.3351 15.322L14.2468 15.249L1.35336 4.59137Z" fill="white"/>
</svg>
