<svg width="41" height="39" viewBox="0 0 41 39" fill="none" xmlns="http://www.w3.org/2000/svg">
<path d="M13.2425 14.153C15.7003 20.8579 18.2448 23.5331 24.7179 26.3825L21.9126 30.3223C14.4794 26.7636 10.7771 20.7648 9.03345 16.0835L13.2425 14.153Z" fill="white"/>
<path d="M15.3048 4.89671C16.6191 4.89157 17.6184 5.98516 17.5288 7.22348C17.3878 9.17218 17.5379 10.5781 17.9421 12.3209C18.1641 13.2782 17.6618 14.2504 16.8637 14.8767C15.7879 15.7207 14.966 16.7963 14.3128 17.7221C13.4074 19.0054 10.2916 18.9132 9.60252 17.5152C8.1864 14.6421 7.2267 9.34882 9.29465 5.7726C9.61947 5.21086 10.2735 4.91638 10.9512 4.91373L15.3048 4.89671Z" fill="white"/>
<path d="M35.2546 26.1571C35.4181 24.9256 34.3887 23.8571 33.0762 23.7922C31.0108 23.6901 29.551 23.3802 27.7676 22.7917C26.788 22.4685 25.7056 22.8224 24.9513 23.4954C23.9347 24.4025 22.7053 25.0438 21.6535 25.5448C20.1957 26.2394 19.9179 29.1717 21.3046 29.9858C24.1544 31.659 29.6032 33.1954 33.6111 31.6866C34.2407 31.4497 34.6289 30.8719 34.7131 30.2368L35.2546 26.1571Z" fill="white"/>
</svg>
