<svg width="51" height="51" viewBox="0 0 51 51" fill="none" xmlns="http://www.w3.org/2000/svg">
<path d="M25.3077 0C11.3305 0 0 11.3305 0 25.3077C0 39.2848 11.3305 50.6154 25.3077 50.6154C39.2848 50.6154 50.6154 39.2848 50.6154 25.3077C50.6154 11.3305 39.2848 0 25.3077 0ZM25.3077 12.3766C30.3124 12.3766 34.3847 16.4489 34.3847 21.4536C34.3847 26.4589 30.3124 30.5306 25.3077 30.5306C20.3024 30.5306 16.2307 26.4589 16.2307 21.4536C16.2307 16.4489 20.3024 12.3766 25.3077 12.3766ZM25.3077 47.1527C19.0454 47.1527 13.4283 44.4054 9.58486 40.0536C11.3716 36.8199 14.165 34.162 17.4865 32.5507C18.6163 32.003 19.9351 32.012 21.1055 32.5738C22.4232 33.207 23.837 33.5276 25.3082 33.5276C26.7789 33.5276 28.1933 33.2065 29.511 32.5738C30.6825 32.0114 32.0013 32.003 33.13 32.5507C36.4515 34.1614 39.2443 36.8199 41.0311 40.0536C37.1871 44.4049 31.5699 47.1527 25.3077 47.1527Z" fill="white"/>
</svg>
