<svg width="211" height="142" viewBox="0 0 211 142" fill="none" xmlns="http://www.w3.org/2000/svg">
<g filter="url(#filter0_d_394_437)">
<rect x="4" width="203" height="128" rx="24" fill="#9076E0" shape-rendering="crispEdges"/>
<rect x="7" y="3" width="197" height="122" rx="21" stroke="black" stroke-width="6" shape-rendering="crispEdges"/>
<path fill-rule="evenodd" clip-rule="evenodd" d="M70.8764 26.6131C68.8472 26.9167 67.0686 28.4246 66.1092 30.6552L65.5 32.0716V57.8777V83.6838L66.0248 84.9164C66.6895 86.4774 68.0984 88.0237 69.411 88.6324L70.3454 89.0657L80.8574 89.1585L91.3694 89.2513L90.5757 91.4206L89.782 93.59L86.8328 93.6477L83.8836 93.7054L83.2013 94.2492C81.1327 95.8979 81.1441 99.4129 83.2231 100.994L83.8889 101.5H99.9022H115.916L116.581 100.994C116.947 100.715 117.451 100.089 117.7 99.6018C118.619 97.8054 118.116 95.379 116.582 94.2117C115.928 93.7134 115.87 93.7045 112.97 93.6477L110.022 93.59L109.229 91.4206L108.435 89.2513L118.947 89.1585L129.459 89.0657L130.428 88.6187C131.767 88.001 133.378 86.1504 133.915 84.6117L134.304 83.4982L134.349 68.9805C134.392 54.6197 134.389 54.4586 134.066 54.0873C133.598 53.5492 132.87 53.6006 132.459 54.2006C132.129 54.6828 132.124 54.8431 132.124 65.6142V76.5387H99.9022H67.6804V54.5679V32.5971L68.1306 31.6017C68.6209 30.5171 69.6648 29.5572 70.7206 29.2204C71.6251 28.9316 128.175 28.9582 129.118 29.2479C129.729 29.4357 129.89 29.4221 130.248 29.1527C131.147 28.476 130.879 27.2127 129.743 26.7681C129.26 26.5788 123.295 26.5248 100.468 26.5027C84.6998 26.4877 71.3839 26.5372 70.8764 26.6131ZM137.05 26.865C136.214 27.1827 135.405 27.6606 134.751 28.2231C134.463 28.4703 130.491 33.8679 125.923 40.2179L117.618 51.763L116.109 51.7639C114.748 51.7646 114.493 51.8229 113.508 52.358C111.582 53.4049 109.826 55.7438 108.944 58.4363C108.735 59.0721 108.41 60.5371 108.22 61.6916C107.829 64.0749 107.198 66.1995 106.367 67.9374C105.723 69.284 105.651 70.0194 106.118 70.5042C106.41 70.8084 106.706 70.828 109.55 70.7308C114.949 70.5463 118.026 69.4163 120.568 66.6833C122.161 64.9706 122.985 62.9015 123.184 60.1143L123.289 58.6297L133.131 49.4431C138.544 44.3906 143.267 39.9226 143.625 39.5143C145.039 37.9051 145.802 34.9834 145.388 32.764C144.935 30.3413 143.256 27.9944 141.381 27.1637C140.227 26.6523 138.012 26.4995 137.05 26.865ZM140.684 29.6172C143.548 31.0293 144.178 35.4518 141.875 37.9708C141.531 38.3468 138.161 41.5403 134.386 45.0676L127.523 51.4809L125.642 49.3259L123.762 47.1708L129.859 38.7029C134.361 32.4511 136.13 30.1235 136.62 29.8087C137.888 28.9933 139.286 28.9274 140.684 29.6172ZM71.824 34.379C71.5856 34.6815 71.5567 35.4451 71.5567 41.4312C71.5567 47.8967 71.5687 48.1578 71.8798 48.5152C72.1931 48.8753 72.4181 48.8864 79.3974 48.8864H86.5921L86.9885 48.4308L87.385 47.9754V41.3785C87.385 35.0292 87.3729 34.7679 87.062 34.4107C86.7485 34.0505 86.5236 34.0395 79.4151 34.0395C72.525 34.0395 72.0755 34.0596 71.824 34.379ZM90.2985 34.4458C89.98 34.8387 89.9692 35.0665 89.9692 41.4136V47.9754L90.3657 48.4308L90.7621 48.8864H97.9568C104.936 48.8864 105.161 48.8753 105.474 48.5152C105.786 48.1576 105.797 47.8967 105.797 41.3989C105.797 35.1001 105.778 34.6334 105.502 34.3467C105.236 34.0703 104.474 34.0395 97.9172 34.0395H90.6278L90.2985 34.4458ZM85.1238 41.3702V46.2882H79.3901H73.6564V41.3702V36.4521H79.3901H85.1238V41.3702ZM103.698 41.3702V46.2882H97.9641H92.2304V41.3702V36.4521H97.9641H103.698V41.3702ZM125.663 53.1515C125.662 53.2044 124.893 53.9486 123.953 54.8055L122.245 56.3633L120.885 54.8096C120.138 53.9551 119.527 53.2122 119.528 53.159C119.528 53.1057 120.154 52.1958 120.918 51.1372L122.307 49.2121L123.985 51.1338C124.908 52.1908 125.663 53.0986 125.663 53.1515ZM71.824 52.752C71.4692 53.2024 71.4841 54.1353 71.8521 54.518C72.1178 54.7943 72.8811 54.8251 79.4432 54.8251C86.5236 54.8251 86.7485 54.8142 87.062 54.454C87.2396 54.2498 87.385 53.874 87.385 53.6188C87.385 53.3637 87.2396 52.9878 87.062 52.7837C86.7485 52.4235 86.5236 52.4125 79.4151 52.4125C72.525 52.4125 72.0755 52.4326 71.824 52.752ZM90.3203 52.842C89.8823 53.3779 89.872 53.9711 90.2922 54.454C90.6057 54.8142 90.8305 54.8251 97.9391 54.8251C104.829 54.8251 105.279 54.8051 105.53 54.4857C105.885 54.0353 105.87 53.1023 105.502 52.7197C105.237 52.4435 104.475 52.4125 97.9392 52.4125H90.6716L90.3203 52.842ZM119.18 56.4973L120.99 58.6297L120.934 60.1431C120.798 63.801 118.576 66.3363 114.455 67.5378C113.014 67.9576 108.935 68.514 108.761 68.3143C108.717 68.2634 108.804 67.9476 108.955 67.6122C109.448 66.5182 109.98 64.4864 110.401 62.0925C110.886 59.3354 111.568 57.5611 112.699 56.1155C113.775 54.7409 114.76 54.2363 116.227 54.3087L117.369 54.3651L119.18 56.4973ZM72.3643 57.9224C71.5417 58.283 71.2954 59.3501 71.8798 60.0215C72.1895 60.3775 72.4181 60.3927 77.4402 60.3927H82.6777L83.0216 59.8903C83.2619 59.5394 83.3352 59.246 83.265 58.916C83.044 57.8784 83.106 57.8903 77.6484 57.8517C74.8753 57.8322 72.4975 57.8639 72.3643 57.9224ZM90.618 58.0291C89.9983 58.3956 89.8322 59.1654 90.238 59.7899L90.5692 60.2999L95.8392 60.3489C100.935 60.3962 101.12 60.3855 101.434 60.0241C101.859 59.5366 101.852 58.6903 101.42 58.2409C101.103 57.9114 100.737 57.884 96.0495 57.8396C92.2147 57.8032 90.9237 57.8483 90.618 58.0291ZM132.124 80.9248C132.124 81.9083 132.039 83.0405 131.934 83.4412C131.679 84.4205 130.676 85.6901 129.74 86.22L128.975 86.6531H99.9022C67.4955 86.6531 70.3601 86.7725 69.006 85.3666C67.96 84.2808 67.6804 83.3783 67.6804 81.0876V79.1369H99.9022H132.124V80.9248ZM99.4177 81.5775C98.9233 81.8893 98.6909 82.3099 98.6909 82.8926C98.6909 83.5605 99.3407 84.3333 99.9022 84.3333C100.48 84.3333 101.114 83.5611 101.114 82.857C101.114 82.321 100.645 81.5495 100.319 81.5495C100.238 81.5495 100.074 81.51 99.9559 81.4617C99.8375 81.4135 99.5954 81.4656 99.4177 81.5775ZM106.767 91.2193C107.166 92.351 107.518 93.3526 107.547 93.4448C107.579 93.5434 104.419 93.6126 99.8984 93.6126C92.6304 93.6126 92.2018 93.5942 92.3006 93.2878C92.3583 93.1093 92.7112 92.109 93.0851 91.0651L93.7648 89.1669L99.9022 89.1641L106.04 89.1613L106.767 91.2193ZM115.583 96.6388C116.208 97.4732 116.053 98.4519 115.216 98.9643C114.71 99.2739 85.0943 99.2739 84.5882 98.9643C84.3943 98.8456 84.147 98.6158 84.0388 98.454C83.5938 97.7881 83.9551 96.5549 84.6969 96.2078C84.8875 96.1186 91.8205 96.062 100.118 96.0818L115.193 96.118L115.583 96.6388Z" fill="white"/>
</g>
<defs>
<filter id="filter0_d_394_437" x="0" y="0" width="211" height="142" filterUnits="userSpaceOnUse" color-interpolation-filters="sRGB">
<feFlood flood-opacity="0" result="BackgroundImageFix"/>
<feColorMatrix in="SourceAlpha" type="matrix" values="0 0 0 0 0 0 0 0 0 0 0 0 0 0 0 0 0 0 127 0" result="hardAlpha"/>
<feOffset dy="10"/>
<feGaussianBlur stdDeviation="2"/>
<feComposite in2="hardAlpha" operator="out"/>
<feColorMatrix type="matrix" values="0 0 0 0 0 0 0 0 0 0 0 0 0 0 0 0 0 0 0.25 0"/>
<feBlend mode="normal" in2="BackgroundImageFix" result="effect1_dropShadow_394_437"/>
<feBlend mode="normal" in="SourceGraphic" in2="effect1_dropShadow_394_437" result="shape"/>
</filter>
</defs>
</svg>
