<svg width="211" height="142" viewBox="0 0 211 142" fill="none" xmlns="http://www.w3.org/2000/svg">
<g filter="url(#filter0_d_394_443)">
<rect x="4" width="203" height="128" rx="24" fill="#9076E0" shape-rendering="crispEdges"/>
<rect x="7" y="3" width="197" height="122" rx="21" stroke="black" stroke-width="6" shape-rendering="crispEdges"/>
<path d="M119.25 34C119.25 34.6904 118.69 35.25 118 35.25C117.31 35.25 116.75 34.6904 116.75 34C116.75 33.3096 117.31 32.75 118 32.75C118.69 32.75 119.25 33.3096 119.25 34Z" fill="white"/>
<path d="M114.25 35.25C114.94 35.25 115.5 34.6904 115.5 34C115.5 33.3096 114.94 32.75 114.25 32.75C113.56 32.75 113 33.3096 113 34C113 34.6904 113.56 35.25 114.25 35.25Z" fill="white"/>
<path d="M111.75 34C111.75 34.6904 111.19 35.25 110.5 35.25C109.81 35.25 109.25 34.6904 109.25 34C109.25 33.3096 109.81 32.75 110.5 32.75C111.19 32.75 111.75 33.3096 111.75 34Z" fill="white"/>
<path d="M116.384 51.8661L111.384 46.8661C110.896 46.378 110.104 46.378 109.616 46.8661C109.128 47.3543 109.128 48.1457 109.616 48.6339L113.732 52.75L109.616 56.8661C109.128 57.3543 109.128 58.1457 109.616 58.6339C110.104 59.122 110.896 59.122 111.384 58.6339L116.384 53.6339C116.872 53.1457 116.872 52.3543 116.384 51.8661Z" fill="white"/>
<path d="M101.384 46.8661C100.896 46.378 100.104 46.378 99.616 46.8661L94.616 51.8661C94.1279 52.3543 94.1279 53.1457 94.616 53.6339L99.616 58.6339C100.104 59.122 100.896 59.122 101.384 58.6339C101.872 58.1457 101.872 57.3543 101.384 56.8661L97.2677 52.75L101.384 48.6339C101.872 48.1457 101.872 47.3543 101.384 46.8661Z" fill="white"/>
<path d="M107.963 48.0532C108.13 47.3834 107.723 46.7048 107.053 46.5373C106.383 46.3699 105.705 46.7771 105.537 47.4468L103.037 57.4468C102.87 58.1166 103.277 58.7952 103.947 58.9627C104.616 59.1301 105.295 58.7229 105.463 58.0532L107.963 48.0532Z" fill="white"/>
<path fill-rule="evenodd" clip-rule="evenodd" d="M87.9999 31.5C87.9999 30.1193 89.1192 29 90.4999 29H120.5C121.881 29 123 30.1193 123 31.5V66.5C123 67.8807 121.881 69 120.5 69H90.4999C89.1192 69 87.9999 67.8807 87.9999 66.5V31.5ZM120.5 31.5H90.4999V36.5H120.5V31.5ZM120.5 39H90.4999V66.5H120.5V39Z" fill="white"/>
<path fill-rule="evenodd" clip-rule="evenodd" d="M77.9999 40.25C77.3096 40.25 76.7499 40.8096 76.7499 41.5V79H134.25V41.5C134.25 40.8096 133.69 40.25 133 40.25H127.674C126.983 40.25 126.424 39.6904 126.424 39C126.424 38.3096 126.983 37.75 127.674 37.75H133C135.071 37.75 136.75 39.4289 136.75 41.5V80.2404L139.871 84.9279C141.005 86.6319 140.987 88.8554 139.824 90.5399L138.062 93.091C137.129 94.4429 135.591 95.25 133.948 95.25H77.0522C75.4093 95.25 73.8712 94.4429 72.9377 93.091L71.1763 90.5399C70.0131 88.8554 69.9943 86.6319 71.1289 84.9279L74.2499 80.2404V41.5C74.2499 39.4289 75.9288 37.75 77.9999 37.75H83.326C84.0164 37.75 84.576 38.3096 84.576 39C84.576 39.6904 84.0164 40.25 83.326 40.25H77.9999ZM76.4147 81.5H134.585L137.79 86.3135C137.96 86.5682 138.078 86.8462 138.144 87.1332C138.097 87.1278 138.049 87.125 138 87.125H73.6249C73.3113 87.125 73.0246 87.2405 72.8051 87.4314C72.8472 87.0397 72.982 86.6556 73.2098 86.3135L76.4147 81.5ZM73.5821 89.6243L74.995 91.6705C75.4617 92.3465 76.2307 92.75 77.0522 92.75H133.948C134.769 92.75 135.538 92.3464 136.005 91.6705L137.417 89.625H73.6249C73.6106 89.625 73.5963 89.6248 73.5821 89.6243Z" fill="white"/>
</g>
<defs>
<filter id="filter0_d_394_443" x="0" y="0" width="211" height="142" filterUnits="userSpaceOnUse" color-interpolation-filters="sRGB">
<feFlood flood-opacity="0" result="BackgroundImageFix"/>
<feColorMatrix in="SourceAlpha" type="matrix" values="0 0 0 0 0 0 0 0 0 0 0 0 0 0 0 0 0 0 127 0" result="hardAlpha"/>
<feOffset dy="10"/>
<feGaussianBlur stdDeviation="2"/>
<feComposite in2="hardAlpha" operator="out"/>
<feColorMatrix type="matrix" values="0 0 0 0 0 0 0 0 0 0 0 0 0 0 0 0 0 0 0.25 0"/>
<feBlend mode="normal" in2="BackgroundImageFix" result="effect1_dropShadow_394_443"/>
<feBlend mode="normal" in="SourceGraphic" in2="effect1_dropShadow_394_443" result="shape"/>
</filter>
</defs>
</svg>
