<svg width="211" height="142" viewBox="0 0 211 142" fill="none" xmlns="http://www.w3.org/2000/svg">
<g filter="url(#filter0_d_394_455)">
<rect x="4" width="203" height="128" rx="24" fill="#9076E0" shape-rendering="crispEdges"/>
<rect x="7" y="3" width="197" height="122" rx="21" stroke="black" stroke-width="6" shape-rendering="crispEdges"/>
<path d="M111.125 59C110.435 59 109.875 59.5596 109.875 60.25C109.875 60.9404 110.435 61.5 111.125 61.5H114.25C114.94 61.5 115.5 60.9404 115.5 60.25C115.5 59.5596 114.94 59 114.25 59H111.125Z" fill="white"/>
<path d="M109.875 65.25C109.875 64.5596 110.435 64 111.125 64H114.25C114.94 64 115.5 64.5596 115.5 65.25C115.5 65.9404 114.94 66.5 114.25 66.5H111.125C110.435 66.5 109.875 65.9404 109.875 65.25Z" fill="white"/>
<path d="M111.125 69C110.435 69 109.875 69.5596 109.875 70.25C109.875 70.9404 110.435 71.5 111.125 71.5H114.25C114.94 71.5 115.5 70.9404 115.5 70.25C115.5 69.5596 114.94 69 114.25 69H111.125Z" fill="white"/>
<path fill-rule="evenodd" clip-rule="evenodd" d="M88 57.75C85.9289 57.75 84.25 59.4289 84.25 61.5V74C84.25 76.0711 85.9289 77.75 88 77.75H90.5C91.8332 77.75 93.0039 77.0543 93.6689 76.0061C94.7922 77.0861 96.3186 77.7501 98 77.7501C98.1215 77.7501 98.2424 77.7466 98.3624 77.7398C98.5459 77.7292 98.7261 77.7351 98.9689 77.743L99.1367 77.7483C99.1744 77.7494 99.2121 77.75 99.25 77.75H116.75C119.511 77.75 121.75 75.5114 121.75 72.75V72.7057C123.87 72.4024 125.5 70.579 125.5 68.375C125.5 67.4293 125.2 66.5537 124.69 65.8381C125.927 65.0652 126.75 63.6912 126.75 62.125C126.75 60.9008 126.247 59.7941 125.437 59C126.247 58.2059 126.75 57.0992 126.75 55.875C126.75 53.4588 124.791 51.5 122.375 51.5H111.125C110.959 51.5 110.872 51.4799 110.833 51.4659C110.815 51.4253 110.777 51.3096 110.771 51.0562C110.751 50.2542 111.051 49.0598 111.465 47.4773L111.492 47.3746C111.946 45.6386 112.499 43.5207 112.424 41.6659C112.384 40.6943 112.172 39.6957 111.609 38.8231C111.031 37.9282 110.154 37.273 108.986 36.8938C107.816 36.5142 106.766 36.9157 106.03 37.5422C105.319 38.147 104.823 39.0069 104.563 39.8442C103.965 41.7712 102.593 43.3032 100.906 45.1496L100.847 45.2142C98.4005 47.8915 95.5 51.0654 95.5 56.5C95.5 56.7116 95.3301 57.0664 94.8169 57.3705C94.1721 57.7527 93.6015 58.2481 93.1326 58.8295C92.4556 58.162 91.5259 57.75 90.5 57.75H88ZM91.75 74C91.75 74.6904 91.1904 75.25 90.5 75.25H88C87.3096 75.25 86.75 74.6904 86.75 74V61.5C86.75 60.8096 87.3096 60.25 88 60.25H90.5C91.1904 60.25 91.75 60.8096 91.75 61.5V74ZM98 75.2501C95.9289 75.2501 94.25 73.5712 94.25 71.5001V62.7501C94.25 61.3778 94.9864 60.1762 96.0916 59.5211C97.0039 58.9804 98 57.9455 98 56.5C98 52.0809 100.277 49.5442 102.752 46.8359L102.836 46.7442C104.425 45.0052 106.173 43.0928 106.951 40.585C107.1 40.1037 107.37 39.6846 107.649 39.4466C107.904 39.2302 108.071 39.2252 108.214 39.2717C108.902 39.4951 109.279 39.8236 109.508 40.1784C109.751 40.5556 109.898 41.0728 109.926 41.7678C109.985 43.2096 109.533 44.9812 109.046 46.8452L109.01 46.983C108.645 48.3797 108.243 49.9174 108.271 51.1164C108.287 51.7555 108.424 52.5176 108.955 53.1238C109.519 53.7687 110.313 54 111.125 54H122.375C123.411 54 124.25 54.8395 124.25 55.875C124.25 56.9105 123.411 57.75 122.375 57.75C121.685 57.75 121.125 58.3096 121.125 59C121.125 59.6904 121.685 60.25 122.375 60.25C123.411 60.25 124.25 61.0895 124.25 62.125C124.25 63.1605 123.411 64 122.375 64H121.125C120.435 64 119.875 64.5596 119.875 65.25C119.875 65.9404 120.435 66.5 121.125 66.5C122.161 66.5 123 67.3395 123 68.375C123 69.4105 122.161 70.25 121.125 70.25C120.089 70.25 119.25 71.0895 119.25 72.125V72.75C119.25 74.1307 118.131 75.25 116.75 75.25H99.25C99.2369 75.25 99.2239 75.2498 99.211 75.2494L99.0841 75.2453C98.8402 75.2369 98.5266 75.2262 98.2193 75.2439C98.1468 75.248 98.0737 75.2501 98 75.2501ZM110.806 51.4524C110.806 51.4524 110.811 51.4541 110.818 51.4601C110.814 51.4583 110.809 51.4555 110.809 51.4555L110.807 51.4539L110.806 51.4524Z" fill="white"/>
<path fill-rule="evenodd" clip-rule="evenodd" d="M81.75 29C78.2982 29 75.5 31.7982 75.5 35.25V80.25C75.5 83.7018 78.2982 86.5 81.75 86.5H88C88.6904 86.5 89.25 87.0596 89.25 87.75V95.4538C89.25 97.6531 91.8853 98.7807 93.4762 97.2622L104.389 86.8458C104.621 86.6238 104.93 86.5 105.252 86.5H129.25C132.702 86.5 135.5 83.7018 135.5 80.25V35.25C135.5 31.7982 132.702 29 129.25 29H81.75ZM78 35.25C78 33.1789 79.6789 31.5 81.75 31.5H129.25C131.321 31.5 133 33.1789 133 35.25V80.25C133 82.3211 131.321 84 129.25 84H105.252C104.287 84 103.36 84.3715 102.662 85.0374L91.75 95.4538L91.75 87.75C91.75 85.6789 90.0711 84 88 84H81.75C79.6789 84 78 82.3211 78 80.25V35.25Z" fill="white"/>
</g>
<defs>
<filter id="filter0_d_394_455" x="0" y="0" width="211" height="142" filterUnits="userSpaceOnUse" color-interpolation-filters="sRGB">
<feFlood flood-opacity="0" result="BackgroundImageFix"/>
<feColorMatrix in="SourceAlpha" type="matrix" values="0 0 0 0 0 0 0 0 0 0 0 0 0 0 0 0 0 0 127 0" result="hardAlpha"/>
<feOffset dy="10"/>
<feGaussianBlur stdDeviation="2"/>
<feComposite in2="hardAlpha" operator="out"/>
<feColorMatrix type="matrix" values="0 0 0 0 0 0 0 0 0 0 0 0 0 0 0 0 0 0 0.25 0"/>
<feBlend mode="normal" in2="BackgroundImageFix" result="effect1_dropShadow_394_455"/>
<feBlend mode="normal" in="SourceGraphic" in2="effect1_dropShadow_394_455" result="shape"/>
</filter>
</defs>
</svg>
