<svg width="211" height="142" viewBox="0 0 211 142" fill="none" xmlns="http://www.w3.org/2000/svg">
<g filter="url(#filter0_d_394_449)">
<rect x="4" width="203" height="128" rx="24" fill="#9076E0" shape-rendering="crispEdges"/>
<rect x="7" y="3" width="197" height="122" rx="21" stroke="black" stroke-width="6" shape-rendering="crispEdges"/>
<path d="M126.384 78.7411C126.872 79.2293 126.872 80.0207 126.384 80.5089L122.009 84.8839C121.521 85.372 120.729 85.372 120.241 84.8839C119.753 84.3957 119.753 83.6043 120.241 83.1161L124.616 78.7411C125.104 78.2529 125.896 78.2529 126.384 78.7411Z" fill="white"/>
<path d="M91.3839 44.2589C91.872 43.7707 91.872 42.9793 91.3839 42.4911C90.8957 42.0029 90.1043 42.0029 89.6161 42.4911L85.2411 46.8661C84.753 47.3543 84.753 48.1457 85.2411 48.6339C85.7293 49.122 86.5207 49.122 87.0089 48.6339L91.3839 44.2589Z" fill="white"/>
<path d="M75.6311 88.8246C75.1429 88.3364 75.1429 87.545 75.6311 87.0568L85.3538 77.3341C85.842 76.846 86.6334 76.846 87.1216 77.3341C87.6097 77.8223 87.6097 78.6137 87.1216 79.1019L77.3989 88.8246C76.9107 89.3128 76.1192 89.3128 75.6311 88.8246Z" fill="white"/>
<path d="M80.0505 91.4762C79.5623 91.9644 79.5623 92.7558 80.0505 93.244C80.5387 93.7322 81.3301 93.7322 81.8183 93.244L91.541 83.5213C92.0291 83.0331 92.0291 82.2417 91.541 81.7535C91.0528 81.2654 90.2614 81.2654 89.7732 81.7535L80.0505 91.4762Z" fill="white"/>
<path fill-rule="evenodd" clip-rule="evenodd" d="M80.5156 28.2645C80.0883 28.3847 79.7568 28.7224 79.6446 29.1518C79.5324 29.5812 79.6563 30.0379 79.9701 30.3517L85.6126 35.9942C86.1007 36.4823 86.1007 37.2738 85.6126 37.7619L80.3093 43.0652C79.8211 43.5534 79.0297 43.5534 78.5415 43.0652L73.0163 37.54C72.6982 37.222 72.2339 37.0993 71.8003 37.2188C71.3667 37.3383 71.0308 37.6814 70.9205 38.1175C69.7733 42.6547 70.9736 47.6691 74.5272 51.2227C78.2662 54.9617 83.621 56.0956 88.339 54.6306L98.6401 64.9317L95.9604 67.6114C94.0077 65.6588 90.8419 65.6588 88.8893 67.6114C87.9002 68.6005 87.4121 69.901 87.4251 71.1973C85.4571 70.8184 83.3421 71.3908 81.8183 72.9147L71.2117 83.5213C68.7709 85.9621 68.7709 89.9194 71.2117 92.3601L76.515 97.6634C78.9558 100.104 82.913 100.104 85.3538 97.6634L95.9604 87.0568C97.4843 85.533 98.0567 83.418 97.6778 81.45C98.9741 81.4629 100.275 80.9749 101.264 79.9858C103.216 78.0331 103.216 74.8673 101.264 72.9147L103.943 70.235L113.944 80.2352C112.016 85.1659 113.042 90.9871 117.027 94.9727C120.581 98.5263 125.595 99.7267 130.132 98.5794C130.568 98.4692 130.912 98.1332 131.031 97.6996C131.151 97.266 131.028 96.8017 130.71 96.4837L125.387 91.1612C124.899 90.6731 124.899 89.8816 125.387 89.3935L130.691 84.0902C131.179 83.602 131.97 83.602 132.459 84.0902L137.898 89.5299C138.212 89.8437 138.669 89.9676 139.098 89.8554C139.528 89.7432 139.865 89.4117 139.985 88.9844C141.287 84.3558 140.118 79.173 136.473 75.5273C132.906 71.961 127.87 70.7648 123.319 71.9329L112.782 61.3962L129.384 44.7949L136.055 42.2385C136.35 42.1251 136.592 41.9035 136.731 41.6186L140.784 33.2976C141.018 32.8181 140.922 32.2434 140.544 31.8663L137.009 28.3307C136.632 27.9537 136.057 27.8573 135.578 28.0909L127.257 32.1442C126.972 32.2829 126.75 32.5247 126.637 32.8206L124.08 39.4916L107.479 56.0929L97.2814 45.8953C98.8935 41.1039 97.7927 35.5973 93.9727 31.7773C90.3269 28.1315 85.1441 26.9627 80.5156 28.2645ZM111.015 59.6284L109.247 57.8607L126.036 41.0712C126.16 40.9472 126.257 40.7985 126.32 40.6347L128.795 34.1757L135.871 30.7287L138.147 33.0039L134.699 40.0805L128.241 42.5557C128.077 42.6184 127.928 42.715 127.804 42.839L111.015 59.6284ZM106.507 58.6561L94.9471 47.0966C94.5918 46.7412 94.4838 46.2076 94.673 45.7421C96.3259 41.6751 95.5007 36.8409 92.2049 33.5451C89.8012 31.1413 86.5798 30.0517 83.4333 30.2793L87.3803 34.2264C88.8448 35.6909 88.8448 38.0652 87.3803 39.5297L82.077 44.833C80.6126 46.2975 78.2382 46.2975 76.7737 44.833L73.0081 41.0673C72.8924 44.0905 73.989 47.1489 76.295 49.455C79.5203 52.6802 84.2186 53.5396 88.2301 52.0257C88.6896 51.8523 89.208 51.964 89.5553 52.3113L116.31 79.0656C116.682 79.4376 116.781 80.0028 116.558 80.4793C114.607 84.6484 115.355 89.7648 118.795 93.2049C121.101 95.511 124.159 96.6076 127.183 96.4919L123.62 92.929C122.155 91.4645 122.155 89.0902 123.62 87.6257L128.923 82.3224C130.387 80.8579 132.762 80.8579 134.226 82.3224L137.971 86.0667C138.198 82.9202 137.109 79.6988 134.705 77.295C131.63 74.2199 127.216 73.2954 123.334 74.5285C122.889 74.6698 122.402 74.5513 122.072 74.221L110.219 62.3685C110.187 62.3423 110.156 62.3143 110.126 62.2844L106.591 58.7489C106.561 58.7191 106.533 58.6881 106.507 58.6561ZM102.148 68.4953L99.4959 71.1469L97.7282 69.3792L100.38 66.7275L102.148 68.4953ZM90.6481 72.9057L95.9604 78.218L95.9695 78.2271C96.9465 79.1943 98.5226 79.1913 99.4959 78.218C100.472 77.2417 100.472 75.6588 99.4959 74.6825L94.1926 69.3792C93.2163 68.4028 91.6334 68.4028 90.6571 69.3792C89.6837 70.3525 89.6808 71.9287 90.6481 72.9057ZM83.5861 74.6825C85.0472 73.2213 87.4142 73.218 88.8794 74.6726L88.8894 74.6825L94.1926 79.9858L94.202 79.9952C95.6571 81.4604 95.654 83.8277 94.1927 85.2891L83.5861 95.8957C82.1216 97.3601 79.7472 97.3601 78.2828 95.8957L72.9795 90.5924C71.515 89.1279 71.515 86.7535 72.9795 85.2891L83.5861 74.6825Z" fill="white"/>
</g>
<defs>
<filter id="filter0_d_394_449" x="0" y="0" width="211" height="142" filterUnits="userSpaceOnUse" color-interpolation-filters="sRGB">
<feFlood flood-opacity="0" result="BackgroundImageFix"/>
<feColorMatrix in="SourceAlpha" type="matrix" values="0 0 0 0 0 0 0 0 0 0 0 0 0 0 0 0 0 0 127 0" result="hardAlpha"/>
<feOffset dy="10"/>
<feGaussianBlur stdDeviation="2"/>
<feComposite in2="hardAlpha" operator="out"/>
<feColorMatrix type="matrix" values="0 0 0 0 0 0 0 0 0 0 0 0 0 0 0 0 0 0 0.25 0"/>
<feBlend mode="normal" in2="BackgroundImageFix" result="effect1_dropShadow_394_449"/>
<feBlend mode="normal" in="SourceGraphic" in2="effect1_dropShadow_394_449" result="shape"/>
</filter>
</defs>
</svg>
